HIERARCHY
ROOT Hips
{
  OFFSET -66.3176 94.32 35.3626
  CHANNELS 6 Xposition Yposition Zposition Zrotation Xrotation Yrotation
  JOINT RightUpLeg
  {
    OFFSET -8.9458 -8.66707 0.101652
    CHANNELS 3 Zrotation Xrotation Yrotation
    JOINT RightLeg
    {
      OFFSET 0 -44.4227 1.3727
      CHANNELS 3 Zrotation Xrotation Yrotation
      JOINT RightFoot
      {
        OFFSET 0.253549 -42.0924 -1.46059
        CHANNELS 3 Zrotation Xrotation Yrotation
        JOINT RightToes
        {
          OFFSET 0.04 -4.41509 8.4991
          CHANNELS 3 Zrotation Xrotation Yrotation
          End Site
          {
            OFFSET -0.08 -0.137448 9.77979
          }
        }
      }
    }
  }
  JOINT LeftUpLeg
  {
    OFFSET 8.9458 -8.66707 0.101652
    CHANNELS 3 Zrotation Xrotation Yrotation
    JOINT LeftLeg
    {
      OFFSET 0 -44.4227 1.3727
      CHANNELS 3 Zrotation Xrotation Yrotation
      JOINT LeftFoot
      {
        OFFSET -0.253549 -42.0924 -1.46059
        CHANNELS 3 Zrotation Xrotation Yrotation
        JOINT LeftToes
        {
          OFFSET -0.04 -4.41509 8.4991
          CHANNELS 3 Zrotation Xrotation Yrotation
          End Site
          {
            OFFSET 0.08 -0.047448 9.77979
          }
        }
      }
    }
  }
  JOINT Spine
  {
    OFFSET 0 11.8905 0
    CHANNELS 3 Zrotation Xrotation Yrotation
    JOINT Spine1
    {
      OFFSET 0 25.6574 0.127663
      CHANNELS 3 Zrotation Xrotation Yrotation
      JOINT HEad
      {
        OFFSET 0 8.73416 0.011341
        CHANNELS 3 Zrotation Xrotation Yrotation
        End Site
        {
          OFFSET -0.29 12.7742 2.51395
        }
      }
      JOINT LeftShoulder1
      {
        OFFSET 8.99 -0.362252 -0.22
        CHANNELS 3 Zrotation Xrotation Yrotation
        JOINT LeftArm
        {
          OFFSET 10.2827 -0.00338 0.322123
          CHANNELS 3 Zrotation Xrotation Yrotation
          JOINT LeftForeArm
          {
            OFFSET 32.7669 0.099144 -1.42434
            CHANNELS 3 Zrotation Xrotation Yrotation
            JOINT LeftHand
            {
              OFFSET 27.5643 0.085362 1.02216
              CHANNELS 3 Zrotation Xrotation Yrotation
              End Site
              {
                OFFSET 16.7443 -0.6 1.50291
              }
            }
          }
        }
      }
      JOINT RightShoulder
      {
        OFFSET -8.99 -0.362252 -0.22
        CHANNELS 3 Zrotation Xrotation Yrotation
        JOINT RightArm
        {
          OFFSET -10.2827 -0.00338 0.322123
          CHANNELS 3 Zrotation Xrotation Yrotation
          JOINT RightForeArm
          {
            OFFSET -32.8971 0.099144 -1.42434
            CHANNELS 3 Zrotation Xrotation Yrotation
            JOINT RightHand
            {
              OFFSET -27.4921 0.085362 1.02216
              CHANNELS 3 Zrotation Xrotation Yrotation
              End Site
              {
                OFFSET -16.6312 -0.6 1.50291
              }
            }
          }
        }
      }
    }
  }
}
MOTION
Frames:	15
Frame Time:	0.0166667
-72.6278 94.0145 34.6789 5.7536 -8.73959 35.5959 -12.3904 -4.89325 -0.435485 -27.0794 50.9935 34.9264 15.7458 2.01167 0.102237 0.0462048 0.000533403 0.662642 18.3772 -26.8624 22.065 19.0919 34.6291 -37.0524 -12.5883 -2.70424 -0.634934 -1.18446e-009 1.5602e-007 -4.87131e-009 19.7436 12.2666 -1.30054 1.07217e-005 -0.0084696 0.00345021 -35.9626 38.4546 41.2347 -1.59028e-015 -3.18055e-015 -3.18055e-015 87.143 -73.2533 104.99 -80.0845 58.4859 -61.5464 8.69601 21.0778 -9.79681 22.0235 8.06526 4.46954 58.354 -26.3046 69.1602 58.6682 53.8106 71.2087 -6.93272 25.9748 -0.237169 
-74.8052 94.0901 34.4028 5.32759 -7.78833 35.4698 -11.8386 -0.0842671 2.36167 -22.0287 43.5178 27.8181 17.0446 1.37055 0.149641 0.0462048 0.000533403 0.662642 18.7445 -27.45 25.8975 20.0348 31.8853 -40.0553 -9.56036 -2.81025 -0.490848 -1.18446e-009 1.5602e-007 -4.87131e-009 19.3769 12.4752 0.289734 1.07217e-005 -0.0084696 0.00345021 -35.8819 35.3156 41.1242 -1.32417e-030 4.77083e-015 1.59028e-014 87.146 -73.4564 106.291 -80.1584 58.2375 -62.0537 8.62519 20.4891 -9.37438 21.3854 7.65262 4.38803 60.1383 -25.2403 69.9193 58.5638 53.9118 70.767 -6.84392 25.7697 -0.395448 
-77.1115 94.1512 34.1175 4.84667 -6.88773 35.3391 -11.4152 4.15251 4.82029 -18.5691 36.3474 21.359 15.8099 0.637137 0.313047 0.0462048 0.000533403 0.662642 19.3152 -28.0646 28.1528 19.7307 29.6241 -41.0387 -6.54038 -2.91255 -0.354607 -1.18447e-009 1.5602e-007 -4.87131e-009 18.9179 12.6781 1.78225 1.07217e-005 -0.0084696 0.00345021 -35.5406 30.6641 40.8209 -1.59028e-015 3.18055e-015 9.54166e-015 89.0998 -73.7085 109.334 -80.7301 58.1641 -61.8694 8.01294 20.5996 -8.85594 20.7631 7.35522 4.10334 62.0941 -23.992 70.899 58.137 54.124 70.4253 -6.74319 25.5186 -0.614125 
-79.5379 94.0909 33.8939 4.34982 -6.07292 35.2284 -11.4117 7.74997 7.03941 -14.3086 31.0664 14.0835 14.9572 -0.0859616 0.355603 0.0462048 0.000533403 0.662642 19.9621 -28.7701 28.9093 18.8157 27.9836 -40.5226 -3.57434 -3.08621 -0.211779 -1.18446e-009 1.5602e-007 -4.87131e-009 18.3833 12.8961 3.12141 1.07217e-005 -0.0084696 0.00345021 -35.1938 26.328 40.5118 3.18055e-015 -1.59028e-015 -3.18055e-015 92.3691 -73.8981 113.653 -81.8488 58.2447 -61.0879 7.9213 19.7471 -8.33851 20.3259 7.1898 3.6295 63.9583 -22.6654 72.0087 57.5793 54.3964 70.1211 -6.77109 25.1363 -0.837996 
-82.0217 93.9703 33.719 3.92658 -5.38704 35.1723 -11.4907 10.6717 8.93146 -9.6084 26.9728 7.23786 10.5175 -0.907423 0.343564 0.0462048 0.000533403 0.662642 20.4633 -29.4465 28.2048 17.5774 26.8291 -38.7474 -0.622225 -3.25117 -0.0614043 -1.18447e-009 1.5602e-007 -4.87131e-009 17.7564 13.1632 4.24566 1.07217e-005 -0.0084696 0.00345021 -34.8657 22.3661 40.245 -1.76556e-031 -3.18055e-015 -3.18055e-015 96.455 -73.9775 118.794 -83.525 58.4266 -59.7596 7.49933 19.4903 -7.8617 20.1953 7.05666 3.14704 65.4729 -21.4548 72.94 56.978 54.6959 69.9137 -6.87257 24.767 -0.971675 
-84.4835 93.7466 33.5916 3.58027 -4.8397 35.1922 -12.2092 12.9023 10.7589 -4.518 23.3619 1.41248 9.8825 -1.44433 0.269255 0.0462048 0.000533403 0.662642 20.7496 -30.1397 26.1128 16.2523 26.1979 -35.8641 2.32255 -3.40895 0.108862 -1.18447e-009 1.5602e-007 -4.87131e-009 17.0772 13.4597 5.11614 1.07217e-005 -0.0084696 0.00345021 -34.6008 18.8512 40.0646 1.59028e-015 -1.59028e-015 -3.18055e-015 101.114 -73.9778 124.474 -85.569 58.6252 -58.0097 7.38502 18.9698 -7.49094 20.1564 6.91837 2.68192 66.8683 -20.3328 73.6871 56.3637 54.9476 69.7539 -7.06543 24.3664 -1.05955 
-86.8241 93.4765 33.5216 3.30812 -4.4461 35.2959 -12.9803 14.4021 12.298 0.562016 20.5963 -3.06461 6.02416 -2.14644 0.194632 0.0462048 0.000533403 0.662642 20.9196 -30.4727 23.9312 15.0532 25.5401 -33.013 5.32138 -3.53937 0.29606 -1.18446e-009 1.5602e-007 -4.87131e-009 16.4084 13.7558 5.72727 1.07217e-005 -0.0084696 0.00345021 -34.4164 15.8695 39.9844 3.18055e-015 0 -6.36111e-015 106.258 -73.927 130.49 -87.8171 58.7378 -55.9556 7.02303 18.9823 -7.2361 20.3675 6.66616 2.35323 67.9522 -19.3523 74.0682 55.7331 55.1274 69.6413 -7.2898 23.9924 -0.914391 
-89.0229 93.2195 33.4633 3.10644 -4.19633 35.4482 -14.0265 14.5357 13.2258 5.19161 19.1252 -5.52627 5.35079 -2.53051 0.175689 0.0462048 0.000533403 0.662642 21.123 -30.6201 21.7855 13.5147 26.359 -28.5613 9.33748 -3.5581 0.56938 -1.18447e-009 1.5602e-007 -4.87131e-009 15.7412 14.0502 6.1323 1.07217e-005 -0.0084696 0.00345021 -34.2168 13.3941 39.9675 1.59028e-015 4.77083e-015 -0 111.635 -73.9168 136.554 -89.9373 58.7334 -53.8693 6.80617 18.7736 -6.8241 20.6029 6.47597 2.12844 68.9868 -18.4964 74.2675 55.0757 55.245 69.5591 -7.27709 23.5356 -1.02276 
-91.0085 93.0463 33.418 2.96116 -4.0746 35.5957 -14.7118 13.6654 13.4102 8.94723 18.9668 -6.22841 2.10873 -2.73167 0.0586645 0.0462048 0.000533403 0.662642 21.4394 -30.6645 19.7895 11.2484 27.7704 -22.5847 14.0825 -3.40266 0.871836 -1.18447e-009 1.5602e-007 -4.87132e-009 15.0694 14.3361 6.41047 1.07217e-005 -0.0084696 0.00345021 -33.9989 11.441 40.0006 1.59028e-015 0 -6.36111e-015 117.134 -73.9585 142.543 -91.7488 58.6135 -51.9204 6.52855 18.9504 -6.4644 20.8857 6.31595 2.06218 69.8703 -17.8276 74.2503 54.3991 55.3107 69.4808 -7.13597 23.2474 -1.05152 
-92.7691 92.9914 33.3726 2.86239 -4.05378 35.7018 -15.3813 12.1884 13.1068 11.414 19.7172 -5.35211 3.46972 -2.56329 0.0938962 0.0462048 0.000533403 0.662642 21.8986 -30.7265 18.0337 8.3157 29.313 -15.4011 19.2197 -3.10246 1.16354 -1.18447e-009 1.5602e-007 -4.87132e-009 14.3836 14.5982 6.61473 1.07217e-005 -0.0084696 0.00345021 -34.1832 11.4868 39.9564 3.18055e-015 0 -0 122.514 -74.0134 148.212 -93.0664 58.412 -50.3461 6.42239 19.1888 -6.06358 21.1299 6.17733 2.05563 70.6385 -17.2358 74.1418 53.6945 55.3186 69.4098 -6.79068 23.0315 -1.10682 
-94.2785 93.0356 33.3199 2.81293 -4.10701 35.7659 -16.0378 10.7793 12.7778 13.3635 19.5886 -4.43703 2.76756 -2.90507 0.131771 0.0462048 0.000533403 0.662642 22.4606 -30.8625 16.5441 4.8476 30.8526 -7.6202 24.6032 -2.60642 1.42465 -1.18447e-009 1.5602e-007 -4.87132e-009 13.6785 14.819 6.76641 1.07217e-005 -0.0084696 0.00345021 -34.8111 13.2188 39.8572 -8.82781e-032 -1.59028e-015 -3.18055e-015 127.586 -74.0073 153.399 -93.9793 58.1574 -49.1142 6.28455 19.4928 -5.65473 21.2432 6.06639 2.14341 71.321 -16.7443 73.9599 52.9759 55.284 69.3656 -6.44434 22.7734 -1.06727 
-95.5578 93.1652 33.3495 2.80838 -4.21321 35.8121 -16.5688 9.69799 12.4205 15.104 21.6101 -3.27788 2.20936 -2.62 0.059258 0.0462048 0.000533403 0.662642 23.0472 -30.9576 15.2681 2.05471 31.0988 -1.18922 29.0816 -2.21381 1.55154 -1.18446e-009 1.5602e-007 -4.87131e-009 12.9698 14.974 6.85565 1.07217e-005 -0.0084696 0.00345021 -35.9324 16.371 39.7959 -1.76556e-031 3.18055e-015 3.18055e-015 132.078 -73.9072 157.857 -94.5549 57.8971 -48.2543 6.23341 19.8708 -5.34962 21.2256 5.92637 2.2012 71.9079 -16.2378 73.742 52.3222 55.2163 69.3219 -6.0713 22.5899 -0.959964 
-96.6379 93.3684 33.4075 2.80285 -4.32609 35.8689 -17.0124 8.70462 12.0044 16.2871 23.394 -2.40685 2.41394 -2.48051 0.0554183 0.0462048 0.000533403 0.662642 23.458 -30.8235 14.0954 -0.0644711 30.3886 3.83577 32.8412 -1.88145 1.63664 -1.18446e-009 1.5602e-007 -4.87131e-009 12.2833 15.0106 6.88333 1.07217e-005 -0.0084696 0.00345021 -36.9521 19.338 39.9249 1.59028e-015 1.59028e-015 3.18055e-015 135.916 -73.674 161.539 -94.9723 57.6305 -47.6084 6.14097 20.1174 -4.91931 21.0526 5.85428 2.36919 72.4249 -15.921 73.5815 51.781 55.1062 69.2519 -5.72903 22.3979 -0.917717 
-97.6069 93.5521 33.4474 2.77297 -4.42929 35.9474 -18.0284 8.02416 11.7705 16.8328 22.7861 -1.37986 11.7178 -2.40658 0.37316 0.0462048 0.000533403 0.662642 23.6541 -30.5137 12.991 -1.57579 29.2213 7.54512 35.9482 -1.61201 1.69904 -1.18447e-009 1.5602e-007 -4.87131e-009 11.6243 14.9282 6.85826 1.07217e-005 -0.0084696 0.00345021 -37.8799 22.0632 40.2047 0 0 -0 139.098 -73.2953 164.434 -95.2603 57.366 -47.1346 6.09425 20.5108 -4.56301 20.7515 5.85286 2.58821 72.8681 -15.7421 73.5412 51.362 54.9533 69.1471 -5.4113 22.2372 -0.805125 
-98.3612 93.8683 33.5586 2.70741 -4.5114 36.0437 -18.2537 7.15252 11.1338 17.769 23.7654 -0.821845 7.71119 -2.42335 0.299855 0.0462048 0.000533403 0.662642 23.4435 -29.7209 11.8828 -2.95652 28.2315 8.34347 38.8402 -1.15293 1.70369 -1.18446e-009 1.5602e-007 -4.87131e-009 10.9854 14.7242 6.80265 1.07217e-005 -0.0084696 0.00345021 -38.7217 24.5388 40.6 0 0 -6.36111e-015 148.804 -71.116 174.228 -95.516 57.1255 -46.7369 6.04041 20.5977 -4.18024 20.497 5.85066 2.90711 73.0601 -15.7588 73.5408 51.0441 54.7527 69.0145 -5.16245 22.1348 -0.768447 
